<svg viewBox="0 0 32 32" fill="none" xmlns="http://www.w3.org/2000/svg">
  <defs>
    <linearGradient id="grad" x1="0%" y1="0%" x2="100%" y2="100%">
      <stop offset="0%" style="stop-color:#8B5CF6"/>
      <stop offset="100%" style="stop-color:#06B6D4"/>
    </linearGradient>
  </defs>
  <rect width="32" height="32" rx="8" fill="url(#grad)"/>
  <path d="M22 8H14C12.9 8 12 8.9 12 10V16C12 17.1 12.9 18 14 18H18L21 21V18H22C23.1 18 24 17.1 24 16V10C24 8.9 23.1 8 22 8Z" fill="white" fill-opacity="0.6"/>
  <path d="M18 12H10C8.9 12 8 12.9 8 14V20C8 21.1 8.9 22 10 22H11V25L14 22H18C19.1 22 20 21.1 20 20V14C20 12.9 19.1 12 18 12Z" fill="white"/>
</svg>